<?xml version="1.0" encoding="UTF-8"?>
<svg class="" width="512" height="512" enable-background="new 0 0 512 512" version="1.1" viewBox="0 0 510.58 510.58" xml:space="preserve" xmlns="http://www.w3.org/2000/svg"><g xmlns="http://www.w3.org/2000/svg"><path d="m459.6 348.52c-9.191 0-16.643-7.451-16.643-16.643v-169.53c0-9.191 7.451-16.643 16.643-16.643 9.191 0 16.643 7.451 16.643 16.643v169.53c0 9.191-7.451 16.643-16.643 16.643z" fill="#ffda2d" data-original="#ffda2d"/><path d="m459.6 449.47c-9.191 0-16.643-7.451-16.643-16.643v-43.815c0-9.191 7.451-16.643 16.643-16.643 9.191 0 16.643 7.451 16.643 16.643v43.815c0 9.191-7.451 16.643-16.643 16.643z" fill="#ffda2d" data-original="#ffda2d"/><path d="m95.471 194.6v112.78c0 6.156 2.658 12.003 7.29 16.058 14.973 13.109 55.517 38.652 144.12 38.652 88.645 0 130.01-25.565 145.39-38.667 4.764-4.059 7.512-9.99 7.512-16.249v-111.6" fill="#00317e" data-original="#00317e"/><path d="m455.55 409.46-45.25-45.249c-2.238-2.238-2.238-5.867 0-8.105l45.25-45.249c2.238-2.238 5.867-2.238 8.105 0l45.249 45.249c2.238 2.238 2.238 5.867 0 8.105l-45.249 45.249c-2.237 2.239-5.866 2.239-8.105 0z" fill="#ffbd00" data-original="#ffbd00"/><path d="m4.241 160.8 233.53 86.51c5.883 2.179 12.347 2.208 18.25 0.08l240.36-86.654c5.721-2.063 5.727-10.151 9e-3 -12.222l-237.02-85.838c-5.759-2.086-12.067-2.086-17.827 0l-237.25 85.921c-5.691 2.061-5.721 10.1-0.044 12.203z" fill="#1930dc" data-original="#1930dc"/><path d="m247.31 362.08c88.349-0.082 129.61-25.584 144.96-38.665 4.764-4.059 7.512-9.99 7.512-16.249v-111.6l-152.47-0.484z" fill="#00215a" data-original="#00215a"/><path d="m496.39 148.54-237.02-85.839c-3.882-1.406-8.011-1.841-12.056-1.351v187.62c2.95-0.033 5.896-0.543 8.714-1.559l240.36-86.654c5.72-2.062 5.726-10.151 8e-3 -12.222z" fill="#1020a1" data-original="#1020a1"/><path d="m510.584 357.578c-.268-.532-.599-1.041-1.043-1.486l-45.249-45.249c-1.16-1.161-2.694-1.706-4.215-1.663v101.93c1.521.043 3.054-.503 4.215-1.663l45.249-45.249c.444-.444.775-.953 1.043-1.486z" fill="#ff8b00" data-original="#ff8b00"/></g></svg>