<?xml version="1.0" encoding="UTF-8"?>
<svg class="" width="512" height="512" enable-background="new 0 0 512 512" version="1.1" viewBox="0 0 430.08 430.08" xml:space="preserve" xmlns="http://www.w3.org/2000/svg">
<polygon points="389.12 423.26 218.46 423.26 204.8 129.71 402.78 129.71" fill="#777" style="" data-original="#777777" xmlns="http://www.w3.org/2000/svg"/>
<path class="" d="m389.12 430.08h-170.67c-3.647 0-6.649-2.867-6.82-6.506l-13.654-293.55c-0.087-1.867 0.594-3.686 1.884-5.033 1.287-1.347 3.07-2.113 4.937-2.113h197.97c1.867 0 3.651 0.766 4.937 2.113 1.29 1.347 1.969 3.166 1.884 5.033l-13.653 293.55c-0.173 3.638-3.175 6.505-6.822 6.505zm-164.15-13.653h157.63l13.02-279.89h-183.67l13.021 279.89z" data-original="#000000" xmlns="http://www.w3.org/2000/svg"/>
<path d="m238.94 423.26h-163.84c-22.622 0-40.96-18.338-40.96-40.96h245.76c0 22.622-18.339 40.96-40.96 40.96z" fill="#ffdd95" style="" data-original="#ffdd95" xmlns="http://www.w3.org/2000/svg"/>
<path class="" d="m238.94 430.08h-163.84c-26.349 0-47.787-21.439-47.787-47.787 0-3.773 3.057-6.827 6.827-6.827h245.76c3.77 0 6.827 3.053 6.827 6.827-1e-3 26.347-21.438 47.787-47.787 47.787zm-197.29-40.96c3.169 15.56 16.963 27.307 33.447 27.307h163.84c16.483 0 30.276-11.747 33.447-27.307h-230.73z" data-original="#000000" xmlns="http://www.w3.org/2000/svg"/>
<path d="m279.9 382.3h-245.76c-11.31 0-20.48-9.17-20.48-20.48s9.17-20.48 20.48-20.48h245.76c11.31 0 20.48 9.17 20.48 20.48s-9.17 20.48-20.48 20.48z" fill="#8c6b3b" style="" data-original="#8c6b3b" xmlns="http://www.w3.org/2000/svg"/>
<path class="" d="m279.9 389.12h-245.76c-15.056 0-27.307-12.247-27.307-27.307s12.25-27.307 27.307-27.307h245.76c15.056 0 27.307 12.247 27.307 27.307-1e-3 15.06-12.251 27.307-27.307 27.307zm-245.76-40.96c-7.53 0-13.653 6.127-13.653 13.653s6.124 13.653 13.653 13.653h245.76c7.53 0 13.653-6.127 13.653-13.653s-6.124-13.653-13.653-13.653h-245.76z" data-original="#000000" xmlns="http://www.w3.org/2000/svg"/>
<circle class="" cx="300.38" cy="273.07" r="61.44" fill="#84d839" style="" data-original="#84d839" xmlns="http://www.w3.org/2000/svg"/>
<path class="" d="m300.38 341.34c-37.644 0-68.267-30.626-68.267-68.267s30.623-68.267 68.267-68.267 68.267 30.626 68.267 68.267-30.624 68.267-68.267 68.267zm0-122.88c-30.114 0-54.613 24.499-54.613 54.613s24.499 54.613 54.613 54.613 54.613-24.499 54.613-54.613-24.499-54.613-54.613-54.613z" data-original="#000000" xmlns="http://www.w3.org/2000/svg"/>
<path d="m170.67 232.11h-27.307c-60.324 0-109.23 48.903-109.23 109.23h245.76c1e-3 -60.326-48.902-109.23-109.23-109.23z" fill="#ffdd95" style="" data-original="#ffdd95" xmlns="http://www.w3.org/2000/svg"/>
<path class="" d="m279.9 348.16h-245.76c-3.77 0-6.827-3.053-6.827-6.827 0-63.993 52.06-116.05 116.05-116.05h27.307c63.993 0 116.05 52.06 116.05 116.05 0 3.774-3.056 6.827-6.826 6.827zm-238.71-13.653h231.65c-3.526-53.294-48.003-95.573-102.17-95.573h-27.307c-54.169 0-98.647 42.279-102.17 95.573z" data-original="#000000" xmlns="http://www.w3.org/2000/svg"/>
<rect class="" x="88.748" y="266.24" width="13.653" height="13.653" data-original="#000000" xmlns="http://www.w3.org/2000/svg"/>
<rect class="" x="81.921" y="293.55" width="13.653" height="13.653" data-original="#000000" xmlns="http://www.w3.org/2000/svg"/>
<rect class="" x="163.84" y="259.41" width="13.653" height="13.653" data-original="#000000" xmlns="http://www.w3.org/2000/svg"/>
<rect class="" x="204.8" y="293.55" width="13.653" height="13.653" data-original="#000000" xmlns="http://www.w3.org/2000/svg"/>
<rect class="" x="143.36" y="300.37" width="13.653" height="13.653" data-original="#000000" xmlns="http://www.w3.org/2000/svg"/>
<rect class="" x="184.32" y="102.4" width="232.11" height="27.307" fill="#84d839" style="" data-original="#84d839" xmlns="http://www.w3.org/2000/svg"/>
<path class="" d="m416.43 136.54h-232.11c-3.77 0-6.827-3.053-6.827-6.827v-27.307c0-3.773 3.057-6.827 6.827-6.827h232.11c3.77 0 6.827 3.053 6.827 6.827v27.307c0 3.773-3.057 6.827-6.827 6.827zm-225.28-13.654h218.45v-13.653h-218.45v13.653z" data-original="#000000" xmlns="http://www.w3.org/2000/svg"/>
<path class="" d="m232.1 109.23c-3.15 0-5.984-2.193-6.67-5.393l-20.48-95.573c-0.79-3.686 1.56-7.32 5.246-8.107 3.693-0.8 7.316 1.56 8.107 5.239l20.48 95.573c0.79 3.686-1.56 7.32-5.246 8.107-0.479 0.106-0.964 0.154-1.437 0.154z" data-original="#000000" xmlns="http://www.w3.org/2000/svg"/>
</svg>
