<?xml version="1.0" encoding="UTF-8"?>
<svg class="" enable-background="new 0 0 512 512" version="1.1" viewBox="0 0 512 512" xml:space="preserve" xmlns="http://www.w3.org/2000/svg">
<polygon class="" points="25.451 235.99 25.451 402.98 231.1 402.98 231.11 402.99 325.44 333.47 325.44 235.99" fill="#e3f2ff" style="" data-original="#e3f2ff" xmlns="http://www.w3.org/2000/svg"/>
<path d="m476.67 326.98c19.243 33.343 8.012 76.195-25.619 95.615l-58.297 33.658-69.996-121.23c77.812-44.926 53.441-30.854 58.297-33.658 33.478-19.328 76.286-7.859 95.615 25.619z" fill="#fe73b1" style="" data-original="#fe73b1" xmlns="http://www.w3.org/2000/svg"/>
<path d="m322.76 335.02 69.996 121.23-62.937 36.338c-33.478 19.329-76.286 7.86-95.615-25.619-19.456-33.792-7.607-76.423 25.619-95.615l62.937-36.338z" fill="#fec459" style="" data-original="#fec459" xmlns="http://www.w3.org/2000/svg"/>
<path class="" d="m265.44 135.99 51.997 69.326c5.19 6.93 8 15.349 8 23.999v6.67h-299.98v-6.67c0-8.65 2.81-17.069 8-23.999l51.997-69.326v-39.998h179.99v39.998z" fill="#ed5151" style="" data-original="#ed5151" xmlns="http://www.w3.org/2000/svg"/>
<path d="m285.44 29.998v45.998c0 11.049-8.95 19.999-19.999 19.999h-179.99c-11.049 0-19.999-8.95-19.999-19.999v-45.998c0-11.049 8.95-19.999 19.999-19.999h179.99c11.049 0 19.999 8.95 19.999 19.999z" fill="#57555c" style="" data-original="#57555c" xmlns="http://www.w3.org/2000/svg"/>
<path class="" d="m231.11 402.99-0.01-0.01h-205.65v19.999c0 22.089 17.909 39.998 39.998 39.998h166.6l0.01-0.01-0.95-59.977z" fill="#ed5151" style="" data-original="#ed5151" xmlns="http://www.w3.org/2000/svg"/>
<path class="" d="m125.7 145.99c5.52 0 9.999-4.48 9.999-9.999 0-5.52-4.48-9.999-9.999-9.999-5.52 0-9.999 4.48-9.999 9.999-1e-3 5.519 4.479 9.999 9.999 9.999z" data-original="#000000" xmlns="http://www.w3.org/2000/svg"/>
<path class="" d="m215.69 312.98h-29.998v-29.998c0-5.522-4.478-9.999-9.999-9.999s-9.999 4.478-9.999 9.999v29.998h-29.998c-5.522 0-9.999 4.478-9.999 10s4.478 9.999 9.999 9.999h29.998v29.998c0 5.522 4.478 9.999 9.999 9.999s9.999-4.478 9.999-9.999v-29.998h29.998c5.522 0 9.999-4.478 9.999-9.999 1e-3 -5.522-4.476-10-9.999-10z" data-original="#000000" xmlns="http://www.w3.org/2000/svg"/>
<path class="" d="m376.3 292.7-40.618 23.45v-86.836c0-10.735-3.55-21.388-10-29.998l-49.997-66.661v-28.386c11.638-4.128 19.999-15.242 19.999-28.279v-45.997c0-16.541-13.457-29.998-29.998-29.998h-179.99c-16.541 0-29.999 13.457-29.999 29.998v45.998c0 13.035 8.361 24.151 19.999 28.279v28.386l-50.001 66.665c-6.446 8.606-9.995 19.258-9.995 29.993v193.66c0 27.569 22.429 49.997 49.997 49.997h160.7c22.421 37.583 70.767 50.16 108.66 28.279l121.24-69.997c37.955-21.918 51.494-70.779 29.277-109.27-22.104-38.286-70.981-51.39-109.27-29.279zm-151.08 100.28h-189.52v-146.99h279.99v81.712l-60.619 35.002c-12.639 7.301-22.855 17.694-29.848 30.278zm-149.52-362.98c0-5.514 4.486-9.999 9.999-9.999h179.99c5.514 0 10 4.486 10 9.999v45.998c0 5.514-4.486 9.999-10 9.999h-179.99c-5.514 0-9.999-4.486-9.999-9.999-1e-3 0-1e-3 -45.998-1e-3 -45.998zm17.999 112c1.298-1.73 2-3.836 2-6v-29.998h159.99v19.999h-89.995c-5.522 0-9.999 4.478-9.999 9.999 0 5.522 4.478 9.999 9.999 9.999h94.995l48.993 65.322c3.202 4.275 5.191 9.39 5.792 14.674h-279.56c0.6-5.284 2.589-10.398 5.788-14.669l51.996-69.326zm-57.997 280.99v-10.099h181.68c-3.171 12.965-3.15 26.813 0.481 40.098h-152.16c-16.541-1e-3 -29.999-13.458-29.999-29.999zm289.37 60.956c-28.697 16.571-65.367 6.771-81.949-21.946-16.661-28.994-6.564-65.498 21.952-81.969l54.277-31.338 59.997 103.92-54.277 31.338zm121.23-69.996-49.637 28.659-59.998-103.92 49.638-28.657c28.716-16.578 65.373-6.761 81.955 21.957 16.655 28.863 6.527 65.509-21.958 81.958z" data-original="#000000" xmlns="http://www.w3.org/2000/svg"/>
</svg>
