<?xml version="1.0" encoding="UTF-8"?>
<svg class="" enable-background="new 0 0 512 512" version="1.1" viewBox="0 0 512 512" xml:space="preserve" xmlns="http://www.w3.org/2000/svg"><g xmlns="http://www.w3.org/2000/svg"><path class="" d="m286.05 91c-68.581 0.896-83.603-2.344-111.81 3.896-37.275-33.491-82.289-33.896-84.293-33.896-9.12 0-16.144 8.087-14.848 17.128l10.033 70.021c-12.243 14.182-22.066 30.469-28.873 47.851h-41.262c-8.284 0-15 6.716-15 15v90c0 8.284 6.716 15 15 15h41.262c6.668 17.039 16.192 32.944 28.08 46.921l-11.21 11.215c-5.855 5.858-5.854 15.354 3e-3 21.211l42.42 42.42c5.853 5.854 15.356 5.858 21.213 0l24.188-24.188c39.27 12.223 57.839 5.506 197.2 7.422 3.644 0 7.164-1.326 9.901-3.731 160.2-140.76 63.724-326.27-82.002-326.27z" fill="#ef7598" data-original="#ef7598"/><path class="" d="m452 91.05h-1.05c-8.28 0-15 6.72-15 15s6.72 15 15 15h1.05c16.54 0 30 13.46 30 30s-13.46 30-30 30h-18.874c-27.039-53.253-82.172-90.05-147.076-90.05-17.22.23-31.06.19-42.57.11v329.94c25.86-.26 61.46-.78 114.67-.05 3.64 0 7.16-1.33 9.9-3.73 76.106-66.87 94.279-143.838 76.768-206.22h7.182c33.08 0 60-26.92 60-60s-26.92-60-60-60z" fill="#e55571" data-original="#e55571"/><path class="" d="m150 211.05c-8.284 0-15-6.716-15-15s6.716-15 15-15 15 6.716 15 15-6.716 15-15 15z" fill="#e55571" data-original="#e55571"/><path d="m465.52 381h-179.05c-8.284 0-15 6.716-15 15v40c0 8.284 6.716 15 15 15h179.05c8.284 0 15-6.716 15-15v-40c-1e-3 -8.284-6.716-15-15.001-15z" fill="#f4e964" data-original="#f4e964"/><path class="" d="m480.52 396v40c0 8.28-6.71 15-15 15h-89.52v-70h89.52c8.29 0 15 6.72 15 15z" fill="#f7db52" data-original="#f7db52"/><path class="" d="m421.05 311h-180.05c-8.284 0-15 6.716-15 15v40c0 8.284 6.716 15 15 15h180.05c8.284 0 15-6.716 15-15v-40c0-8.284-6.716-15-15-15z" fill="#f7db52" data-original="#f7db52"/><path d="m436.05 326v40c0 8.28-6.72 15-15 15h-90.03v-70h90.03c8.28 0 15 6.72 15 15z" fill="#f4cc25" data-original="#f4cc25"/><path d="m466.02 241.71h-180.05c-8.284 0-15 6.716-15 15v40c0 8.284 6.716 15 15 15h180.05c8.284 0 15-6.716 15-15v-40c0-8.284-6.716-15-15-15z" fill="#f4e964" data-original="#f4e964"/><path class="" d="m481.02 256.71v40c0 8.29-6.71 15-15 15h-90.02v-70h90.02c8.29 0 15 6.72 15 15z" fill="#f7db52" data-original="#f7db52"/></g></svg>
